<svg width="103" height="70" viewBox="0 0 103 70" fill="none" xmlns="http://www.w3.org/2000/svg">
<mask id="mask0_5_170" style="mask-type:luminance" maskUnits="userSpaceOnUse" x="0" y="0" width="93" height="70">
<path d="M0 0H92.6416V70H0V0Z" fill="white"/>
</mask>
<g mask="url(#mask0_5_170)">
<path d="M91.7058 70.0073C92.2212 70.0073 92.6382 69.3546 92.6382 68.5532V64.5226C92.6382 63.7201 92.2212 63.0696 91.7058 63.0696H65.3554C80.1865 52.1065 90.5721 28.6287 90.9366 1.45178C90.9366 0.649274 90.5196 -0.00123596 90.0043 -0.00123596H87.4222C86.9075 -0.00123596 86.4912 0.649274 86.4912 1.45178C85.9404 35.323 68.1552 62.689 46.3191 62.689C24.4823 62.689 6.69648 35.323 6.14635 1.45178C6.14635 0.649274 5.72931 -0.00123596 5.21535 -0.00123596H2.63259C2.11795 -0.00123596 1.70091 0.649274 1.70091 1.45178C2.06607 28.6287 12.451 52.1065 27.2828 63.0696H0.931679C0.416355 63.0696 0 63.7201 0 64.5226V68.5532C0 69.3546 0.416355 70.0073 0.931679 70.0073H91.7058Z" fill="#231F20"/>
</g>
<path d="M82.873 17.6127C82.873 19.5164 66.4632 21.0597 46.2208 21.0597C25.9785 21.0597 9.56934 19.5164 9.56934 17.6127C9.56934 15.709 25.9785 14.1667 46.2208 14.1667C66.4632 14.1667 82.873 15.709 82.873 17.6127Z" fill="#231F20"/>
<mask id="mask1_5_170" style="mask-type:luminance" maskUnits="userSpaceOnUse" x="86" y="6" width="17" height="29">
<path d="M86.8591 6.85692H103V34.4675H86.8591V6.85692Z" fill="white"/>
</mask>
<g mask="url(#mask1_5_170)">
<path d="M86.9034 34.4588C92.8703 32.418 98.5095 29.9988 101.818 22.7869C106.257 13.1111 97.1116 8.81684 92.342 6.85893L91.4915 11.9068C94.5425 13.161 100.893 15.661 98.0515 21.8536C95.9342 26.4699 91.6936 27.3893 87.8754 28.6957L86.9034 34.4588Z" fill="#231F20"/>
</g>
</svg>
